<svg width="100" height="100" viewBox="0 0 100 100" fill="none" xmlns="http://www.w3.org/2000/svg">
<path fill-rule="evenodd" clip-rule="evenodd" d="M76.0733 29.5449H83.7483C85.8191 29.5449 87.4983 31.9865 87.4983 35.0032V51.3615C87.4983 54.374 85.8191 56.8199 83.7483 56.8199H53.4108V29.5449H46.59V56.8199H16.2525C14.1816 56.8199 12.4983 54.374 12.4983 51.3615V35.0032C12.4983 31.9865 14.1816 29.5449 16.2525 29.5449H23.9275C23.1816 27.9907 22.7233 26.2699 22.7233 24.4282C22.7233 17.8532 28.0816 12.499 34.6608 12.499C42.4983 12.499 47.2441 17.999 49.9983 23.2032C52.7525 17.999 57.5025 12.499 65.34 12.499C71.9191 12.499 77.2733 17.8532 77.2733 24.4282C77.2733 26.2699 76.8191 27.9907 76.0733 29.5449ZM53.41 87.4999H76.8475C78.9641 87.4999 80.6808 85.804 80.6808 83.7124V63.6332H53.41V87.4999ZM19.3195 63.6353V83.7103C19.3195 85.8019 21.0362 87.5019 23.1529 87.5019H46.5904V63.6353H19.3195ZM65.34 29.5449H54.5858C56.1941 25.3115 59.5025 19.3199 65.34 19.3199C68.1608 19.3199 70.4566 21.6115 70.4566 24.4282C70.4566 27.249 68.1608 29.5449 65.34 29.5449ZM29.5441 24.4282C29.5441 27.249 31.84 29.5449 34.6608 29.5449H45.415C43.8066 25.3115 40.4983 19.3199 34.6608 19.3199C31.84 19.3199 29.5441 21.6115 29.5441 24.4282Z" fill="#0500FF"/>
</svg>
